<svg class="header__logo" width="138" height="16" viewBox="0 0 138 16" version="1.1" xmlns="http://www.w3.org/2000/svg" xmlns:xlink="http://www.w3.org/1999/xlink">
  <g stroke="none" stroke-width="1" fill="none" fill-rule="evenodd">
    <g transform="translate(-23283.000000, -2349.000000)" fill-rule="nonzero">
      <g transform="translate(23283.000000, 2349.000000)">
        <polygon class="nitsnets-n" fill="currentColor" points="1.8189894e-12 11.2 3.6 11.2 3.6 5.2 10.5 15.7 14.3 15.7 14.3 0.1 10.7 0.1 10.7 10.6 4 0.1 0 0.1 0 11.2"/>
        <polygon class="nitsnets-char" fill="currentColor" points="23 0.3 26.5 0.3 26.5 15.6 23 15.6"/>
        <polygon class="nitsnets-char" fill="currentColor" points="38.1 3.2 33.9 3.2 33.9 0.3 45.8 0.3 45.8 3.2 41.6 3.2 41.6 15.6 38.1 15.6 38.1 3.2"/>
        <path class="nitsnets-char" d="M51.6,13.7 L53.6,11.3 C54.6,12.3 56,12.8 57.4,12.9 C58.8,12.9 59.6,12.3 59.6,11.4 C59.6,10.4 58.7,10.1 57.4,9.6 L55.4,8.8 C53.6,8.2 52.3,6.5 52.3,4.6 C52.3,2.1 54.6,0 57.8,0 C59.6,0 61.4,0.7 62.7,2 L61,4.2 C60.1,3.4 59,3 57.8,3 C56.6,3 55.8,3.5 55.8,4.4 C55.8,5.3 56.8,5.7 58.1,6.2 L60.1,7 C61.9,7.5 63.2,9.2 63.1,11.2 C63.1,13.7 61,15.9 57.3,15.9 C55.2,15.9 53.2,15.1 51.6,13.7 L51.6,13.7 Z" fill="currentColor"/>
        <polygon class="nitsnets-char" fill="currentColor" points="69.6 11.2 73.2 11.2 73.2 5.2 80.1 15.7 83.9 15.7 83.9 0.1 80.3 0.1 80.3 10.6 73.6 0.1 69.6 0.1 69.6 11.2"/>
        <polygon class="nitsnets-char" fill="currentColor" points="91.4 0.3 101 0.3 101 3.2 94.9 3.2 94.9 6.3 100.1 6.3 100.1 9.2 94.9 9.2 94.9 12.7 101.3 12.7 101.3 15.6 91.5 15.6 91.4 0.3"/>
        <polygon class="nitsnets-char" fill="currentColor" points="112.4 3.2 108.2 3.2 108.2 0.3 120.1 0.3 120.1 3.2 115.9 3.2 115.9 15.6 112.4 15.6 112.4 3.2"/>
        <path class="nitsnets-char" d="M125.9,13.7 L127.9,11.3 C128.9,12.3 130.3,12.8 131.7,12.9 C133.1,12.9 133.9,12.3 133.9,11.4 C133.9,10.4 133,10.1 131.7,9.6 L129.7,8.8 C127.9,8.2 126.6,6.5 126.6,4.6 C126.6,2.1 128.9,0 132.1,0 C133.9,0 135.7,0.7 137,2 L135.3,4.2 C134.4,3.4 133.3,3 132.1,3 C130.9,3 130.1,3.5 130.1,4.4 C130.1,5.3 131.1,5.7 132.4,6.2 L134.4,7 C136.2,7.5 137.5,9.2 137.4,11.2 C137.4,13.7 135.3,15.9 131.6,15.9 C129.5,15.9 127.4,15.1 125.9,13.7 L125.9,13.7 Z" fill="currentColor"/>
      </g>
    </g>
  </g>
</svg>
